<svg width="64" height="64" viewBox="0 0 64 64" fill="none" xmlns="http://www.w3.org/2000/svg">
  <!-- Layer 1 - Top -->
  <g transform="translate(8, 8)">
    <path d="M24 0L48 12V20L24 8L0 20V12L24 0Z" fill="#FAFAFA"/>
    <path d="M0 12L24 0L48 12L24 24L0 12Z" fill="#1F1F1F" stroke="#404040" stroke-width="0.5"/>
  </g>
  
  <!-- Layer 2 - Middle with orange accent -->
  <g transform="translate(8, 20)">
    <path d="M24 0L48 12V20L24 8L0 20V12L24 0Z" fill="#FAFAFA"/>
    <path d="M0 12L24 0L48 12L24 24L0 12Z" fill="#171717" stroke="#D97706" stroke-width="1.5"/>
  </g>
  
  <!-- Layer 3 - Bottom -->
  <g transform="translate(8, 32)">
    <path d="M24 0L48 12V20L24 8L0 20V12L24 0Z" fill="#FAFAFA"/>
    <path d="M0 12L24 0L48 12L24 24L0 12Z" fill="#1F1F1F" stroke="#404040" stroke-width="0.5"/>
  </g>
  
  <!-- Data flow connector - Orange -->
  <path d="M32 20L32 48" stroke="#D97706" stroke-width="2" stroke-linecap="round"/>
  <circle cx="32" cy="20" r="3" fill="#D97706"/>
  <circle cx="32" cy="48" r="3" fill="#D97706"/>
</svg>
